<svg width="19" height="19" viewBox="0 0 19 19" fill="none" xmlns="http://www.w3.org/2000/svg">
<path d="M8.38755 10.675H9.91255V8.38752H12.2V6.86252H9.91255V4.57502H8.38755V6.86252H6.10005V8.38752H8.38755V10.675ZM9.15005 14.7544C10.7005 13.3311 11.8506 12.038 12.6004 10.8752C13.3502 9.71237 13.725 8.67982 13.725 7.77752C13.725 6.39232 13.2834 5.2581 12.4002 4.37487C11.517 3.49164 10.4336 3.05002 9.15005 3.05002C7.86651 3.05002 6.78312 3.49164 5.89989 4.37487C5.01666 5.2581 4.57505 6.39232 4.57505 7.77752C4.57505 8.67982 4.94994 9.71237 5.69974 10.8752C6.44953 12.038 7.59963 13.3311 9.15005 14.7544ZM9.15005 16.775C7.10401 15.034 5.57583 13.4168 4.56552 11.9236C3.5552 10.4304 3.05005 9.04836 3.05005 7.77752C3.05005 5.87127 3.66323 4.35263 4.88958 3.22159C6.11593 2.09055 7.53609 1.52502 9.15005 1.52502C10.764 1.52502 12.1842 2.09055 13.4105 3.22159C14.6369 4.35263 15.25 5.87127 15.25 7.77752C15.25 9.04836 14.7449 10.4304 13.7346 11.9236C12.7243 13.4168 11.1961 15.034 9.15005 16.775Z" fill="#FFC933"/>
</svg>
