<svg width="19" height="19" viewBox="0 0 19 19" fill="none" xmlns="http://www.w3.org/2000/svg">
<path d="M9.15214 13.2705C10.0674 13.2705 10.83 12.9591 11.4402 12.3363C12.0503 11.7134 12.3554 10.9571 12.3554 10.0673C12.3554 9.19023 12.0503 8.43708 11.4402 7.80787C10.83 7.17867 10.0674 6.86406 9.15214 6.86406C8.23693 6.86406 7.47425 7.17867 6.86411 7.80787C6.25397 8.43708 5.9489 9.1934 5.9489 10.0768C5.9489 10.9603 6.25397 11.7134 6.86411 12.3363C7.47425 12.9591 8.23693 13.2705 9.15214 13.2705ZM9.15214 11.8977C8.61827 11.8977 8.17973 11.7189 7.83653 11.3614C7.49332 11.0038 7.32172 10.5661 7.32172 10.0482C7.32172 9.54106 7.49332 9.11237 7.83653 8.76217C8.17973 8.41198 8.61827 8.23688 9.15214 8.23688C9.68602 8.23688 10.1246 8.41198 10.4678 8.76217C10.811 9.11237 10.9826 9.54106 10.9826 10.0482C10.9826 10.5661 10.811 11.0038 10.4678 11.3614C10.1246 11.7189 9.68602 11.8977 9.15214 11.8977ZM3.20326 15.5586C2.83464 15.5586 2.51368 15.4219 2.24038 15.1486C1.96709 14.8753 1.83044 14.5544 1.83044 14.1858V5.94885C1.83044 5.58022 1.96709 5.25926 2.24038 4.98597C2.51368 4.71268 2.83464 4.57603 3.20326 4.57603H5.49129L6.86411 2.74561H11.4402L12.813 4.57603H15.101C15.4785 4.57603 15.8017 4.71268 16.0706 4.98597C16.3394 5.25926 16.4738 5.58022 16.4738 5.94885V14.1858C16.4738 14.5544 16.3394 14.8753 16.0706 15.1486C15.8017 15.4219 15.4785 15.5586 15.101 15.5586H3.20326ZM3.20326 14.1858H15.101V5.94885H12.1266L10.7519 4.11842H7.55052L6.1777 5.94885H3.20326V14.1858Z" fill="#FFC933"/>
</svg>
