<svg width="24" height="24" viewBox="0 0 24 24" fill="none" xmlns="http://www.w3.org/2000/svg">
<path d="M16 16C16.8333 16 17.5416 16.2917 18.125 16.875C18.7083 17.4583 19 18.1667 19 19C19 19.8333 18.7083 20.5417 18.125 21.125C17.5416 21.7083 16.8333 22 16 22C15.3666 22 14.7958 21.8167 14.2875 21.45C13.7791 21.0833 13.4166 20.6 13.2 20H6.84998L5.84998 21.55C5.69998 21.7833 5.48748 21.9292 5.21248 21.9875C4.93748 22.0458 4.68331 22 4.44998 21.85C4.21664 21.7 4.07081 21.4875 4.01248 21.2125C3.95414 20.9375 3.99998 20.6833 4.14998 20.45L8.09998 14.4C6.89998 13.85 5.91664 13.0042 5.14998 11.8625C4.38331 10.7208 3.99998 9.43333 3.99998 8H18C18 9.43333 17.6166 10.7208 16.85 11.8625C16.0833 13.0042 15.1 13.85 13.9 14.4L14.475 15.3C14.125 15.4667 13.8375 15.6333 13.6125 15.8C13.3875 15.9667 13.1416 16.2 12.875 16.5L11.875 14.95C11.7416 14.9833 11.6 15 11.45 15H10.55C10.4 15 10.2583 14.9833 10.125 14.95L8.14998 18H13.2C13.4166 17.4 13.7791 16.9167 14.2875 16.55C14.7958 16.1833 15.3666 16 16 16ZM16.7125 19.7125C16.9041 19.5208 17 19.2833 17 19C17 18.7167 16.9041 18.4792 16.7125 18.2875C16.5208 18.0958 16.2833 18 16 18C15.7166 18 15.4791 18.0958 15.2875 18.2875C15.0958 18.4792 15 18.7167 15 19C15 19.2833 15.0958 19.5208 15.2875 19.7125C15.4791 19.9042 15.7166 20 16 20C16.2833 20 16.5208 19.9042 16.7125 19.7125ZM11 13C12 13 12.9125 12.725 13.7375 12.175C14.5625 11.625 15.1833 10.9 15.6 10H6.39998C6.83331 10.9 7.45831 11.625 8.27498 12.175C9.09164 12.725 9.99998 13 11 13ZM8.39998 7C8.48331 6.51667 8.47081 6.10833 8.36248 5.775C8.25414 5.44167 8.02498 5.05833 7.67498 4.625C7.34164 4.19167 7.12081 3.77917 7.01248 3.3875C6.90414 2.99583 6.89164 2.53333 6.97498 2H7.97498C7.89164 2.48333 7.90414 2.8875 8.01248 3.2125C8.12081 3.5375 8.34998 3.91667 8.69998 4.35C9.04998 4.78333 9.27498 5.19583 9.37498 5.5875C9.47498 5.97917 9.48331 6.45 9.39998 7H8.39998ZM10.9 7C10.9833 6.51667 10.975 6.10833 10.875 5.775C10.775 5.44167 10.55 5.05833 10.2 4.625C9.84998 4.20833 9.62081 3.80417 9.51248 3.4125C9.40414 3.02083 9.39164 2.55 9.47498 2H10.475C10.3916 2.48333 10.4041 2.8875 10.5125 3.2125C10.6208 3.5375 10.85 3.91667 11.2 4.35C11.5333 4.76667 11.7541 5.17083 11.8625 5.5625C11.9708 5.95417 11.9833 6.43333 11.9 7H10.9ZM13.4 7C13.4833 6.51667 13.475 6.10833 13.375 5.775C13.275 5.44167 13.05 5.05833 12.7 4.625C12.35 4.20833 12.1208 3.80417 12.0125 3.4125C11.9041 3.02083 11.8916 2.55 11.975 2H12.975C12.8916 2.48333 12.9041 2.8875 13.0125 3.2125C13.1208 3.5375 13.35 3.91667 13.7 4.35C14.0333 4.76667 14.2541 5.17083 14.3625 5.5625C14.4708 5.95417 14.4833 6.43333 14.4 7H13.4Z" fill="#FFC933"/>
</svg>
