<svg width="19" height="19" viewBox="0 0 19 19" fill="none" xmlns="http://www.w3.org/2000/svg">
<path d="M14.5481 15.5395C13.01 15.4251 11.5514 15.047 10.1722 14.405C8.79304 13.7631 7.55687 12.8956 6.4637 11.8024C5.37053 10.7092 4.50934 9.47623 3.88013 8.10341C3.25092 6.73059 2.87276 5.27515 2.74565 3.73709C2.72023 3.47015 2.79834 3.23817 2.97998 3.04114C3.1615 2.84412 3.38846 2.74561 3.66086 2.74561H6.25396C6.47005 2.74561 6.65755 2.81234 6.81644 2.94581C6.97533 3.07928 7.0802 3.2477 7.13104 3.45108L7.58865 5.47218C7.61407 5.63742 7.60454 5.79631 7.56005 5.94885C7.51556 6.10138 7.44247 6.2285 7.34078 6.33019L5.49129 8.19875C5.74551 8.68178 6.03787 9.14574 6.36836 9.59063C6.69886 10.0355 7.06729 10.4549 7.47367 10.8487C7.85539 11.2303 8.26234 11.5831 8.69453 11.9073C9.12671 12.2314 9.58432 12.5206 10.0673 12.7748L11.955 10.9444C12.0567 10.8427 12.1838 10.7696 12.3363 10.7251C12.4888 10.6806 12.6477 10.6711 12.813 10.6965L14.8531 11.1351C15.0692 11.1986 15.2408 11.3098 15.368 11.4687C15.4951 11.6276 15.5586 11.8151 15.5586 12.0312V14.6243C15.5586 14.8967 15.4569 15.1237 15.2535 15.3052C15.0502 15.4868 14.815 15.5649 14.5481 15.5395ZM4.86208 6.86406L6.19676 5.52938L5.86957 4.11842H4.1566C4.22016 4.60145 4.30914 5.06859 4.42354 5.51984C4.53794 5.97109 4.68412 6.41917 4.86208 6.86406ZM11.4211 13.4231C11.8673 13.6041 12.322 13.7479 12.7853 13.8544C13.2487 13.9609 13.7155 14.0459 14.1858 14.1095V12.3935L12.7558 12.0884L11.4211 13.4231Z" fill="#FFC933"/>
</svg>
